# AST/ASF file generated using VICON BodyLanguage
# -----------------------------------------------
:version 1.10
:name VICON
:units
  mass 1.0
  length 0.45
  angle deg
:documentation
   .ast/.asf automatically generated from VICON data using
   VICON BodyBuilder and BodyLanguage model FoxedUp or BRILLIANT.MOD
:root
   order TX TY TZ RX RY RZ
   axis XYZ
   position 0 0 0  
   orientation 0 0 0 
:bonedata
  begin
     id 1 
     name lhipjoint
     direction 0.567149 -0.783011 0.255413 
     length 2.28399 
     axis 0 0 0  XYZ
  end
  begin
     id 2 
     name lfemur
     direction 0.34202 -0.939693 0  
     length 7.34031  
     axis 0 0 20  XYZ
    dof rx ry rz
    limits (-160.0 20.0)
           (-70.0 70.0)
           (-60.0 70.0)
  end
  begin
     id 3 
     name ltibia
     direction 0.34202 -0.939693 0   
     length 6.9833   
     axis 0 0 20   XYZ
    dof rx
    limits (-10.0 170.0)
  end
  begin
     id 4 
     name lfoot
     direction 0.136498 -0.375025 0.91691   
     length 2.33665   
     axis -90 7.62852e-016 20   XYZ
    dof rx rz
    limits (-45.0 90.0)
           (-70.0 20.0)
  end
  begin
     id 5 
     name ltoes
     direction 1.5367e-011 -4.21617e-011 1   
     length 1.15039   
     axis -90 7.62852e-016 20   XYZ
    dof rx
    limits (-90.0 20.0)
  end
  begin
     id 6 
     name rhipjoint
     direction -0.602854 -0.758518 0.247423   
     length 2.35775  
     axis 0 0 0  XYZ 
  end
  begin
     id 7 
     name rfemur
     direction -0.34202 -0.939693 0   
     length 7.43932   
     axis 0 0 -20   XYZ
    dof rx ry rz
    limits (-160.0 20.0)
           (-70.0 70.0)
           (-70.0 60.0)
  end
  begin
     id 8 
     name rtibia
     direction -0.34202 -0.939693 0   
     length 7.11893   
     axis 0 0 -20   XYZ
    dof rx
    limits (-10.0 170.0)
 end
 begin
     id 9 
     name rfoot
     direction -0.131771 -0.362037 0.922803   
     length 2.53019  
     axis -90 -7.62852e-016 -20   XYZ
    dof rx rz
    limits (-45.0 90.0)
           (-20.0 70.0)
  end
  begin
     id 10 
     name rtoes
     direction -1.53733e-011 -4.21932e-011 1   
     length 1.24596   
     axis -90 -7.62852e-016 -20   XYZ
    dof rx
    limits (-90.0 20.0)
  end
  begin
     id 11 
     name lowerback
     direction 0.0235427 0.999023 -0.0374125   
     length 2.21768   
     axis 0 0 0   XYZ
    dof rx ry rz
    limits (-20.0 45.0)
           (-30.0 30.0)
           (-30.0 30.0)
  end
  begin
     id 12 
     name upperback
     direction 0.0302156 0.996818 -0.073759   
     length 2.20352   
     axis 0 0 0   XYZ
    dof rx ry rz
    limits (-20.0 45.0)
           (-30.0 30.0)
           (-30.0 30.0)
  end
  begin
     id 13 
     name thorax
     direction 0.0187169 0.998235 -0.0563532   
     length 2.22103   
     axis 0 0 0   XYZ
    dof rx ry rz
    limits (-20.0 45.0)
           (-30.0 30.0)
           (-30.0 30.0)
  end
  begin
     id 14 
     name lowerneck
     direction -0.119528 0.987423 0.103481   
     length 1.72948   
     axis 0 0 0   XYZ
    dof rx ry rz
    limits (-20.0 45.0)
           (-30.0 30.0)
           (-30.0 30.0)
  end
  begin
     id 15 
     name upperneck
     direction 0.248049 0.963095 -0.104496   
     length 1.74979   
     axis 0 0 0   XYZ
    dof rx ry rz
    limits (-20.0 45.0)
           (-30.0 30.0)
           (-30.0 30.0)
  end
  begin
     id 16
     name head
     direction 0.0903589 0.994284 -0.056876  
     length 1.78268  
     axis 0 0 0   XYZ
    dof rx ry rz
    limits (-20.0 45.0)
           (-30.0 30.0)
           (-30.0 30.0)
  end
  begin
     id 17 
     name lclavicle
     direction 0.946008 0.242039 -0.215608  
     length 3.80783  
     axis 0 0 0   XYZ
    dof ry rz
    limits (-20.0 10.0)
           (0.0 20.0)
  end
  begin
     id 18 
     name lhumerus
     direction 1 -4.48991e-011 -2.25695e-027   
     length 4.83125   
     axis 180 -30 -90   XYZ
    dof rx ry rz
    limits (-60.0 90.0)
           (-90.0 90.0)
           (-90.0 90.0)
  end
  begin
     id 19
     name lradius
     direction 0.999991 0.00366712 -0.00211721   
     length 3.00391   
     axis 180 -30 -90   XYZ
    dof rx
    limits (-10.0 170.0)
  end
  begin
     id 20
     name lwrist
     direction 0.999991 0.00393016 -0.00141978   
     length 1.50195   
     axis -1.00488e-014 90 90   XYZ
    dof ry
    limits (-180.0 0.0)
 end
  begin
     id 21 
     name lhand
     direction 1 -4.49123e-011 2.72098e-026   
     length 1.2717   
     axis -1.73687e-014 90 90   XYZ
    dof rx rz
    limits (-90.0 90.0)
           (-45.0 45.0)
  end
  begin
     id 22 
     name lfingers
     direction 1 -4.48678e-011 5.4479e-026   
     length 1.02528   
     axis -3.47372e-014 90 90   XYZ
    dof rx
    limits (0.0 90.0)
  end
  begin
     id 23
     name lthumb
     direction 0.707107 -6.34851e-011 0.707107   
     length 1.4721   
     axis -90 45 -1.62303e-014   XYZ
    dof rx rz
    limits (-45.0 45.0)
           (-45.0 45.0)
  end
  begin
     id 24 
     name rclavicle
     direction -0.981723 0.189447 -0.0181673   
     length 3.74989  
     axis 0 0 0   XYZ 
    dof ry rz
    limits (-10.0 20.0)
           (-20.0 0.0)
  end
  begin
     id 25 
     name rhumerus
     direction -1 -4.48985e-011 2.38206e-027  
     length 4.61118   
     axis 180 30 90   XYZ
    dof rx ry rz
    limits (-90.0 60.0)
           (-90.0 90.0)
           (-90.0 90.0)
  end
  begin
     id 26 
     name rradius
     direction -1 -4.48977e-011 7.41019e-027   
     length 2.91491   
     axis 180 30 90   XYZ
    dof rx
    limits (-10.0 170.0)
  end
  begin
     id 27 
     name rwrist
     direction -1 -4.48549e-011 1.3624e-026   
     length 1.45745   
     axis -1.00488e-014 -90 -90   XYZ
    dof ry
    limits (-180.0 0.0)
  end
  begin
     id 28
     name rhand
     direction -1 -4.49107e-011 2.72109e-026   
     length 1.30769   
     axis -1.73687e-014 -90 -90   XYZ
    dof rx rz
    limits (-90.0 90.0)
           (-45.0 45.0)
  end
  begin
     id 29
     name rfingers
     direction -1 -4.48919e-011 5.44468e-026   
     length 1.05429   
     axis -3.47372e-014 -90 -90   XYZ
    dof rx
    limits (0.0 90.0)
  end
  begin
     id 30
     name rthumb
     direction -0.707107 -6.35315e-011 0.707107   
     length 1.51376   
     axis -90 -45 1.62303e-014   XYZ
    dof rx rz
    limits (-45.0 45.0)
           (-45.0 45.0)
  end
:hierarchy
  begin
    root lhipjoint rhipjoint lowerback
    lhipjoint lfemur
    lfemur ltibia
    ltibia lfoot
    lfoot ltoes
    rhipjoint rfemur
    rfemur rtibia
    rtibia rfoot
    rfoot rtoes
    lowerback upperback
    upperback thorax
    thorax lowerneck lclavicle rclavicle
    lowerneck upperneck
    upperneck head
    lclavicle lhumerus
    lhumerus lradius
    lradius lwrist
    lwrist lhand lthumb
    lhand lfingers
    rclavicle rhumerus
    rhumerus rradius
    rradius rwrist
    rwrist rhand rthumb
    rhand rfingers
  end

#!OML:ASF X:\für Bonn\!DataBase\2005_08_11_Bastian_Final\c3d\Bastian.ASF
:FULLY-SPECIFIED
:DEGREES
16
root 1.07338 17.3748 -1.92813 204.949 80.6533 -141.471
lowerback 8.29241 -0.265991 6.05925
upperback 9.86067 0.416045 1.23386
thorax 5.72846 0.795752 -2.08061
lowerneck -1.23991 -8.17386 -6.60881
upperneck 4.43466 -11.2941 12.547
head 2.61657 -5.42692 4.45792
rclavicle 3.13583e-014 -1.66979e-014
rhumerus -28.863 4.35663 -84.7675
rradius 33.395
rwrist -3.65081
rhand -24.832 -1.1307
rfingers 7.12502
rthumb 1.67384 -31.1039
lclavicle 3.13583e-014 -1.66979e-014
lhumerus -26.9781 4.70009 85.3726
lradius 6.97196
lwrist 8.43921
lhand -13.6464 -7.00745
lfingers 7.12502
lthumb 12.4701 22.6005
rfemur 12.8692 -0.946185 32.6072
rtibia 22.7198
rfoot -14.3345 -8.79371
rtoes 8.40895
lfemur -13.6729 -0.122795 -12.4704
ltibia 31.6608
lfoot -3.59523 -8.16617
ltoes -16.3471
17
root 1.19269 17.3729 -1.94171 205.321 80.6756 -141.211
lowerback 8.25685 -0.230803 6.09098
upperback 9.83454 0.459485 1.23686
thorax 5.72432 0.81744 -2.09658
lowerneck -1.21097 -8.23048 -6.64713
upperneck 4.65233 -11.3926 12.635
head 2.69311 -5.46759 4.48229
rclavicle -1.50082e-014 1.88845e-015
rhumerus -28.6228 4.58586 -84.6987
rradius 33.5257
rwrist -3.77053
rhand -24.8235 -1.18169
rfingers 7.12502
rthumb 1.68203 -31.1548
lclavicle -1.50082e-014 1.88845e-015
lhumerus -27.0915 4.68833 85.3256
lradius 7.08284
lwrist 8.65224
lhand -13.5533 -6.85773
lfingers 7.12502
lthumb 12.5598 22.7448
rfemur 13.415 -1.02747 32.6096
rtibia 22.2591
rfoot -14.5085 -8.69161
rtoes 8.37105
lfemur -13.8592 -0.133715 -12.6225
ltibia 29.8524
lfoot -3.58387 -7.68895
ltoes -16.7183
18
root 1.31127 17.3661 -1.95614 205.782 80.672 -140.882
lowerback 8.1984 -0.207927 6.12057
upperback 9.80182 0.483363 1.26329
thorax 5.72383 0.827939 -2.08606
lowerneck -1.1229 -8.28005 -6.73269
upperneck 4.83476 -11.4816 12.7627
head 2.75368 -5.50633 4.52977
rclavicle 2.06985e-014 -1.35174e-014
rhumerus -28.3903 4.7441 -84.5764
rradius 33.636
rwrist -3.73538
rhand -24.7636 -1.19681
rfingers 7.12502
rthumb 1.7399 -31.1695
lclavicle 2.06985e-014 -1.35174e-014
lhumerus -27.0448 4.73082 85.3264
lradius 6.88
lwrist 8.78647
lhand -13.5445 -6.95907
lfingers 7.12502
lthumb 12.5683 22.6429
rfemur 13.8975 -1.19527 32.5987
rtibia 21.8766
rfoot -14.7067 -8.5138
rtoes 8.28333
lfemur -14.0583 -0.0526453 -12.7593
ltibia 28.1395
lfoot -3.53684 -7.28238
ltoes -17.185
19
root 1.42865 17.3571 -1.97084 206.431 80.6784 -140.377
lowerback 8.15791 -0.173612 6.19603
upperback 9.75106 0.525813 1.26649
thorax 5.69684 0.849868 -2.12655
lowerneck -1.04685 -8.33333 -6.75533
upperneck 5.05298 -11.5791 12.8887
head 2.82417 -5.54599 4.56537
rclavicle 4.79568e-015 -5.56597e-015
rhumerus -28.1537 4.88809 -84.5017
rradius 33.6898
rwrist -3.76379
rhand -24.7752 -1.18611
rfingers 7.12502
rthumb 1.72871 -31.1589
lclavicle 4.79568e-015 -5.56597e-015
lhumerus -27.0473 4.72295 85.2691
lradius 6.80085
lwrist 8.96095
lhand -13.4942 -7.21618
lfingers 7.12502
lthumb 12.6167 22.3828
rfemur 14.3311 -1.33461 32.6156
rtibia 21.5418
rfoot -14.8925 -8.36444
rtoes 7.86248
lfemur -14.2746 0.0280852 -12.8674
ltibia 26.5729
lfoot -3.61296 -6.86964
ltoes -17.857
20
root 1.54675 17.3488 -1.98521 206.904 80.6716 -140.048
lowerback 8.08943 -0.148395 6.23571
upperback 9.7276 0.553055 1.27583
thorax 5.71296 0.864163 -2.13923
lowerneck -0.996143 -8.38818 -6.7872
upperneck 5.22958 -11.6751 13.0171
head 2.88727 -5.58541 4.60278
rclavicle 2.05742e-014 -9.24349e-015
rhumerus -27.8818 5.05519 -84.4194
rradius 33.7487
rwrist -3.77467
rhand -24.7168 -1.22878
rfingers 7.12502
rthumb 1.78506 -31.2011
lclavicle 2.05742e-014 -9.24349e-015
lhumerus -26.9784 4.74178 85.2384
lradius 6.73757
lwrist 9.04883
lhand -13.3674 -7.25095
lfingers 7.12502
lthumb 12.739 22.3405
rfemur 14.7666 -1.47089 32.6143
rtibia 21.2207
rfoot -15.0987 -8.21737
rtoes 7.77494
lfemur -14.527 0.115579 -12.9917
ltibia 25.2106
lfoot -3.83921 -6.45737
ltoes -18.8872
21
root 1.6648 17.3396 -2.00091 207.557 80.6492 -139.553
lowerback 7.99893 -0.125246 6.33016
upperback 9.711 0.57826 1.27236
thorax 5.75054 0.882255 -2.19524
lowerneck -0.994361 -8.44844 -6.78982
upperneck 5.43631 -11.7822 13.1804
head 2.96921 -5.62532 4.64282
rclavicle -1.16289e-014 -1.97791e-014
rhumerus -27.5764 5.15569 -84.3431
rradius 33.7671
rwrist -3.68683
rhand -24.7158 -1.21951
rfingers 7.12502
rthumb 1.78609 -31.1918
lclavicle -1.16289e-014 -1.97791e-014
lhumerus -26.8794 4.73662 85.1613
lradius 6.75921
lwrist 9.13845
lhand -13.1414 -7.13331
lfingers 7.12502
lthumb 12.9569 22.4444
rfemur 15.1708 -1.67974 32.6088
rtibia 20.9071
rfoot -15.2625 -8.011
rtoes 7.30169
lfemur -14.8394 0.205596 -13.0872
ltibia 24.0807
lfoot -4.2306 -6.04778
ltoes -20.2214
22
root 1.78229 17.3288 -2.01613 208.172 80.6575 -139.098
lowerback 7.91866 -0.0806386 6.38664
upperback 9.6915 0.631158 1.27051
thorax 5.78071 0.911345 -2.22928
lowerneck -0.960613 -8.51968 -6.75286
upperneck 5.626 -11.9019 13.2974
head 3.03709 -5.6734 4.66363
rclavicle 6.28657e-015 1.80894e-014
rhumerus -27.276 5.20837 -84.2365
rradius 33.7726
rwrist -3.60224
rhand -24.6446 -1.20694
rfingers 7.12502
rthumb 1.85483 -31.1786
lclavicle 6.28657e-015 1.80894e-014
lhumerus -26.7736 4.69932 85.0844
lradius 6.78805
lwrist 9.18413
lhand -12.9202 -6.89483
lfingers 7.12502
lthumb 13.1701 22.6692
rfemur 15.5773 -1.86132 32.5745
rtibia 20.6025
rfoot -15.455 -7.78141
rtoes 7.16544
lfemur -15.1751 0.253737 -13.194
ltibia 23.1865
lfoot -4.69766 -5.64102
ltoes -21.2867
23
root 1.89876 17.3147 -2.03158 208.802 80.6541 -138.594
lowerback 7.87845 -0.0439524 6.4608
upperback 9.68348 0.678794 1.26829
thorax 5.80115 0.939785 -2.27359
lowerneck -0.925686 -8.5936 -6.74512
upperneck 5.82241 -12.0282 13.4578
head 3.11206 -5.72338 4.70169
rclavicle 2.56681e-014 1.78906e-015
rhumerus -26.9898 5.2995 -84.141
rradius 33.8021
rwrist -3.56091
rhand -24.6365 -1.19883
rfingers 7.12502
rthumb 1.86261 -31.1704
lclavicle 2.56681e-014 1.78906e-015
lhumerus -26.6609 4.66968 85.018
lradius 6.85084
lwrist 9.1663
lhand -12.697 -6.59127
lfingers 7.12502
lthumb 13.3852 22.9587
rfemur 15.9715 -2.06618 32.552
rtibia 20.3614
rfoot -15.6139 -7.56647
rtoes 6.74895
lfemur -15.4801 0.293859 -13.2766
ltibia 22.4903
lfoot -5.11701 -5.33768
ltoes -21.9728
